<svg width="106" height="28" viewBox="0 0 106 28" fill="none" xmlns="http://www.w3.org/2000/svg">
<g clip-path="url(#clip0_89_4448)">
<path d="M6.125 0C4.67578 0 3.5 1.17578 3.5 2.625V5.25H0.875C0.39375 5.25 0 5.64375 0 6.125C0 6.60625 0.39375 7 0.875 7H14.875C15.3562 7 15.75 7.39375 15.75 7.875C15.75 8.35625 15.3562 8.75 14.875 8.75H2.625C2.14375 8.75 1.75 9.14375 1.75 9.625C1.75 10.1062 2.14375 10.5 2.625 10.5H13.125C13.6062 10.5 14 10.8938 14 11.375C14 11.8562 13.6062 12.25 13.125 12.25H0.875C0.39375 12.25 0 12.6438 0 13.125C0 13.6062 0.39375 14 0.875 14H11.375C11.8562 14 12.25 14.3938 12.25 14.875C12.25 15.3562 11.8562 15.75 11.375 15.75H3.5V22.75C3.5 25.6484 5.85156 28 8.75 28C11.6484 28 14 25.6484 14 22.75H21C21 25.6484 23.3516 28 26.25 28C29.1484 28 31.5 25.6484 31.5 22.75H33.25C34.218 22.75 35 21.968 35 21C35 20.032 34.218 19.25 33.25 19.25V12.9773C33.25 12.0477 32.8836 11.1562 32.2273 10.5L28 6.27266C27.3438 5.61641 26.4523 5.25 25.5227 5.25H22.75V2.625C22.75 1.17578 21.5742 0 20.125 0H6.125ZM29.75 12.9773V14H22.75V8.75H25.5227L29.75 12.9773ZM8.75 25.375C7.30078 25.375 6.125 24.1992 6.125 22.75C6.125 21.3008 7.30078 20.125 8.75 20.125C10.1992 20.125 11.375 21.3008 11.375 22.75C11.375 24.1992 10.1992 25.375 8.75 25.375ZM28.875 22.75C28.875 24.1992 27.6992 25.375 26.25 25.375C24.8008 25.375 23.625 24.1992 23.625 22.75C23.625 21.3008 24.8008 20.125 26.25 20.125C27.6992 20.125 28.875 21.3008 28.875 22.75Z" fill="#2F63ED"/>
</g>
<path d="M43.04 21L49.44 7H50.9L57.3 21H55.74L49.86 7.86H50.46L44.58 21H43.04ZM45.56 17.26L46 16.06H54.14L54.58 17.26H45.56ZM63.3983 21.1C62.3983 21.1 61.4983 20.8733 60.6983 20.42C59.9116 19.9667 59.2916 19.34 58.8383 18.54C58.3849 17.7267 58.1583 16.7933 58.1583 15.74C58.1583 14.6733 58.3849 13.74 58.8383 12.94C59.2916 12.14 59.9116 11.52 60.6983 11.08C61.4983 10.6267 62.3983 10.4 63.3983 10.4C64.3183 10.4 65.1383 10.6067 65.8583 11.02C66.5916 11.4333 67.1716 12.04 67.5983 12.84C68.0383 13.6267 68.2583 14.5933 68.2583 15.74C68.2583 16.8733 68.0449 17.84 67.6183 18.64C67.1916 19.44 66.6116 20.0533 65.8783 20.48C65.1583 20.8933 64.3316 21.1 63.3983 21.1ZM63.4983 19.84C64.2449 19.84 64.9116 19.6733 65.4983 19.34C66.0983 18.9933 66.5649 18.5133 66.8983 17.9C67.2449 17.2733 67.4183 16.5533 67.4183 15.74C67.4183 14.9133 67.2449 14.1933 66.8983 13.58C66.5649 12.9667 66.0983 12.4933 65.4983 12.16C64.9116 11.8133 64.2449 11.64 63.4983 11.64C62.7649 11.64 62.1049 11.8133 61.5183 12.16C60.9316 12.4933 60.4649 12.9667 60.1183 13.58C59.7716 14.1933 59.5983 14.9133 59.5983 15.74C59.5983 16.5533 59.7716 17.2733 60.1183 17.9C60.4649 18.5133 60.9316 18.9933 61.5183 19.34C62.1049 19.6733 62.7649 19.84 63.4983 19.84ZM67.4583 21V17.84L67.5983 15.72L67.3983 13.6V6.16H68.8183V21H67.4583ZM78.133 10.4C78.9863 10.4 79.733 10.5667 80.373 10.9C81.0263 11.22 81.533 11.7133 81.893 12.38C82.2663 13.0467 82.453 13.8867 82.453 14.9V21H81.033V15.04C81.033 13.9333 80.753 13.1 80.193 12.54C79.6463 11.9667 78.873 11.68 77.873 11.68C77.1263 11.68 76.473 11.8333 75.913 12.14C75.3663 12.4333 74.9396 12.8667 74.633 13.44C74.3396 14 74.193 14.68 74.193 15.48V21H72.773V10.5H74.133V13.38L73.913 12.84C74.2463 12.08 74.7796 11.4867 75.513 11.06C76.2463 10.62 77.1196 10.4 78.133 10.4ZM90.6286 21.1C89.7353 21.1 88.9553 20.9333 88.2886 20.6C87.6219 20.2667 87.1019 19.7667 86.7286 19.1C86.3686 18.4333 86.1886 17.6 86.1886 16.6V10.5H87.6086V16.44C87.6086 17.56 87.8819 18.4067 88.4286 18.98C88.9886 19.54 89.7686 19.82 90.7686 19.82C91.5019 19.82 92.1353 19.6733 92.6686 19.38C93.2153 19.0733 93.6286 18.6333 93.9086 18.06C94.2019 17.4867 94.3486 16.8 94.3486 16V10.5H95.7686V21H94.4086V18.12L94.6286 18.64C94.2953 19.4133 93.7753 20.02 93.0686 20.46C92.3753 20.8867 91.5619 21.1 90.6286 21.1ZM99.7261 21V10.5H101.086V13.36L100.946 12.86C101.239 12.06 101.733 11.4533 102.426 11.04C103.119 10.6133 103.979 10.4 105.006 10.4V11.78C104.953 11.78 104.899 11.78 104.846 11.78C104.793 11.7667 104.739 11.76 104.686 11.76C103.579 11.76 102.713 12.1 102.086 12.78C101.459 13.4467 101.146 14.4 101.146 15.64V21H99.7261Z" fill="#2F63ED"/>
<defs>
<clipPath id="clip0_89_4448">
<rect width="35" height="28" fill="white"/>
</clipPath>
</defs>
</svg>
